<?xml version="1.0" standalone="no"?><!DOCTYPE svg PUBLIC "-//W3C//DTD SVG 1.1//EN" "http://www.w3.org/Graphics/SVG/1.1/DTD/svg11.dtd"><svg class="icon" height="512" viewBox="0 0 1118 1024" version="1.1" xmlns="http://www.w3.org/2000/svg"><path d="M1007.094709 418.719018a15.451794 15.451794 0 0 1-10.085035-3.779093L561.16175 36.717577l-229.809098 200.426091v-137.970432h-72.741947l0.134169 201.253467-130.993646 114.289607a15.436141 15.436141 0 1 1-20.281877-23.278317l120.282489-104.920141V83.766165a15.496517 15.496517 0 0 1 15.451794-15.451794h103.600812a15.496517 15.496517 0 0 1 15.451794 15.451794v85.443277l188.686306-164.580612a15.407071 15.407071 0 0 1 20.237154 0L1017.224467 391.616885a15.183456 15.183456 0 0 1 5.299674 10.554626 15.451794 15.451794 0 0 1-15.407071 16.525146zM1.185159 801.257135l165.810495-152.706658c36.203263-24.150416 78.824274-36.382154 126.767323-36.382154a258.633066 258.633066 0 0 1 70.796497 9.391828c42.352674 12.097569 125.09021 14.713865 134.370231 14.982203h149.822026c53.287446 0 96.624026 38.730112 96.624025 86.315375s-43.33658 86.337737-96.624025 86.337738h-194.321403v-30.858865h194.43321c35.666587 0 65.765161-25.40266 65.765161-55.478873s-30.098574-55.456511-65.765161-55.45651h-151.007184c-9.548359-0.245976-94.946913-2.795187-142.152032-16.27917a233.252768 233.252768 0 0 0-61.896622-7.960692c-41.368768 0-77.885092 10.174481-108.520342 30.299827l-0.89446 0.559037-162.478632 149.822026zM634.954687 959.039853c1.274605 0 2.437403-0.290699 3.689647-0.380145l-5.590374 0.15653c0.581399 0.044723 1.252244 0.223615 1.900727 0.223615zM638.935034 958.637346zM864.830869 444.434739L561.631341 174.55384 259.88531 444.770161v94.454961a309.483109 309.483109 0 0 0-30.858865 4.78536v-106.127661a15.429432 15.429432 0 0 1 5.143144-11.49381l317.153102-283.991003a15.429432 15.429432 0 0 1 20.527854 0L890.524229 425.986504a15.407071 15.407071 0 0 1 5.165505 11.516171v96.154434l-30.858865 16.055555zM134.482039 1002.510602c56.373332-60.37604 101.76717-74.396698 106.910314-75.850195l1.833642-0.514315 353.490534-9.548359 39.579848-1.565304 415.409517-222.452166c30.232743-16.234446 43.806171-52.348263 29.606621-78.824274-8.407923-15.653047-25.380298-25.000153-45.416199-25.000153a74.642675 74.642675 0 0 0-35.062826 9.190575l-184.348176 95.841373a155.166423 155.166423 0 0 0-8.944598-30.143297l178.89197-92.979101a105.099033 105.099033 0 0 1 49.46363-12.857861c31.574433 0 58.743651 15.474155 72.652502 41.346407 22.495665 41.927806 3.555478 96.154434-42.196144 120.617911l-409.662612 219.589894a51.207827 51.207827 0 0 1-18.962549 6.350664l-7.334571 0.693207-382.292141 10.487542-2.10198 0.805013c-10.398096 4.069792-46.064682 20.259516-88.372634 65.139039z" /></svg>